#!OML:ASF H:\Punching\Project 1\Capture day 1\Session 1\female.ASF
:FULLY-SPECIFIED
:DEGREES
1968
root 2.90514 14.1793 1.82551 10.0061 -1.31588 4.29213
lowerback -7.66783 -5.53462 -1.5755
upperback -10.1982 -7.29697 1.83608
thorax -5.97325 -3.49948 2.59803
lowerneck -6.33854 11.4641 16.2337
upperneck 35.722 21.1509 -18.1273
head 18.7786 9.26843 -7.21142
rclavicle -6.0033e-014 -6.36111e-015
rhumerus 3.14314 16.2082 -48.59
rradius 127.924
rwrist -17.653
rhand -31.0369 4.08508
rfingers 7.12502
rthumb -4.31878 -25.8509
lclavicle -6.0033e-014 -6.36111e-015
lhumerus -5.53336 -18.6841 80.4549
lradius 139.251
lwrist -0.810182
lhand -28.1795 -1.87397
lfingers 7.12502
lthumb -1.55929 28.1001
rfemur -53.1575 1.28927 15.1597
rtibia 63.6184
rfoot -16.3714 -12.1487
rtoes 2.45774
lfemur 9.63921 -1.60937 -18.3511
ltibia 34.9303
lfoot -199.736 206.033
ltoes -17.4054
1969
root 2.83976 14.2264 1.92686 9.48978 -1.55995 3.92019
lowerback -7.49711 -5.50864 -0.877553
upperback -10.1061 -7.291 1.71914
thorax -6.06777 -3.5452 2.11335
lowerneck -6.14851 11.6168 16.3324
upperneck 35.8443 21.4686 -18.1888
head 18.94 9.41526 -7.20766
rclavicle 9.24349e-014 3.33958e-014
rhumerus 3.26146 16.516 -48.6421
rradius 127.386
rwrist -17.5486
rhand -30.9605 4.06804
rfingers 7.12502
rthumb -4.24501 -25.8694
lclavicle 9.24349e-014 3.33958e-014
lhumerus -6.29407 -17.9131 80.2594
lradius 139.405
lwrist -0.523284
lhand -28.3104 -1.64663
lfingers 7.12502
lthumb -1.68571 28.3265
rfemur -51.6949 1.96108 15.8113
rtibia 62.9322
rfoot -16.6228 -12.4997
rtoes 2.64099
lfemur 8.01627 -0.795657 -17.2312
ltibia 38.8398
lfoot -195.1 204.745
ltoes -16.1118
1970
root 2.77751 14.2739 2.02161 8.98487 -1.7526 3.56559
lowerback -7.30206 -5.46725 -0.169435
upperback -9.99512 -7.26354 1.57697
thorax -6.16274 -3.58172 1.59977
lowerneck -6.00816 11.7446 16.4062
upperneck 35.9872 21.7362 -18.2176
head 19.1019 9.53753 -7.19393
rclavicle 9.14409e-015 3.02153e-014
rhumerus 3.39264 16.7992 -48.7266
rradius 126.874
rwrist -17.4086
rhand -30.8936 4.07228
rfingers 7.12502
rthumb -4.1804 -25.8665
lclavicle 9.14409e-015 3.02153e-014
lhumerus -6.96601 -17.2011 80.041
lradius 139.527
lwrist -0.306009
lhand -28.4436 -1.30525
lfingers 7.12502
lthumb -1.81437 28.6668
rfemur -50.2334 2.49762 16.4605
rtibia 62.1869
rfoot -16.8347 -12.7522
rtoes 2.82872
lfemur 6.12956 -0.0216974 -16.1385
ltibia 43.0106
lfoot -190.545 202.431
ltoes -15.7796
1971
root 2.71855 14.3208 2.10917 8.49737 -1.89494 3.22887
lowerback -7.08777 -5.40925 0.542821
upperback -9.86754 -7.21232 1.41353
thorax -6.25565 -3.60731 1.06373
lowerneck -5.90606 11.845 16.4487
upperneck 36.1369 21.9507 -18.2193
head 19.2505 9.63345 -7.17202
rclavicle -4.07509e-014 -2.70347e-014
rhumerus 3.53557 17.0515 -48.8316
rradius 126.393
rwrist -17.2303
rhand -30.8601 4.13007
rfingers 7.12502
rthumb -4.14807 -25.8093
lclavicle -4.07509e-014 -2.70347e-014
lhumerus -7.53835 -16.5649 79.8112
lradius 139.626
lwrist -0.165776
lhand -28.5705 -0.850651
lfingers 7.12502
lthumb -1.93691 29.1203
rfemur -48.8044 2.88947 17.1049
rtibia 61.4111
rfoot -17.0077 -12.9019
rtoes 3.01702
lfemur 3.98795 0.730364 -15.0868
ltibia 47.4148
lfoot -186.846 199.04
ltoes -16.5283
1972
root 2.66285 14.3673 2.18962 8.03391 -1.98901 2.89784
lowerback -6.86062 -5.33503 1.26549
upperback -9.72512 -7.13743 1.2377
thorax -6.34346 -3.62207 0.509812
lowerneck -5.83317 11.9195 16.4606
upperneck 36.2813 22.1169 -18.2054
head 19.3794 9.70501 -7.14614
rclavicle -7.99114e-014 -1.03368e-014
rhumerus 3.69343 17.2741 -48.9505
rradius 125.947
rwrist -17.0209
rhand -30.8602 4.23915
rfingers 7.12502
rthumb -4.14816 -25.7002
lclavicle -7.99114e-014 -1.03368e-014
lhumerus -8.00751 -16.0073 79.578
lradius 139.706
lwrist -0.0860162
lhand -28.6825 -0.329937
lfingers 7.12502
lthumb -2.04507 29.64
rfemur -47.4218 3.13921 17.755
rtibia 60.6117
rfoot -17.1399 -12.9573
rtoes 3.19862
lfemur 1.5977 1.48124 -14.0786
ltibia 52.0275
lfoot -184.405 194.921
ltoes -18.1263
1973
root 2.61026 14.4142 2.2633 7.60342 -2.04367 2.56599
lowerback -6.63178 -5.24717 1.99638
upperback -9.57484 -7.04169 1.06225
thorax -6.42454 -3.62676 -0.0490872
lowerneck -5.76346 11.9687 16.4379
upperneck 36.4059 22.2417 -18.1901
head 19.476 9.75521 -7.12143
rclavicle 1.59624e-013 2.94201e-014
rhumerus 3.87591 17.4848 -49.0808
rradius 125.534
rwrist -16.7892
rhand -30.8772 4.37701
rfingers 7.12502
rthumb -4.16458 -25.562
lclavicle 1.59624e-013 2.94201e-014
lhumerus -8.38527 -15.5103 79.3463
lradius 139.772
lwrist -0.0379319
lhand -28.7756 0.175049
lfingers 7.12502
lthumb -2.13498 30.1441
rfemur -46.0931 3.26293 18.4112
rtibia 59.7854
rfoot -17.225 -12.932
rtoes 3.37173
lfemur -1.04427 2.25069 -13.1255
ltibia 56.8206
lfoot -183.093 190.592
ltoes -20.0632
1974
root 2.56078 14.4622 2.33059 7.20717 -2.06878 2.24381
lowerback -6.40997 -5.14199 2.7258
upperback -9.41735 -6.92025 0.886109
thorax -6.4923 -3.6183 -0.610349
lowerneck -5.68838 11.9912 16.3767
upperneck 36.5068 22.3254 -18.1778
head 19.5354 9.78398 -7.09972
rclavicle -5.86415e-014 -3.97569e-015
rhumerus 4.07201 17.676 -49.2167
rradius 125.164
rwrist -16.5597
rhand -30.9051 4.52413
rfingers 7.12502
rthumb -4.19149 -25.4144
lclavicle -5.86415e-014 -3.97569e-015
lhumerus -8.67759 -15.0728 79.1249
lradius 139.824
lwrist 0.0123022
lhand -28.8428 0.605719
lfingers 7.12502
lthumb -2.19994 30.5741
rfemur -44.8173 3.28026 19.0536
rtibia 58.9298
rfoot -17.2653 -12.8417
rtoes 3.54326
lfemur -3.933 3.04556 -12.2643
ltibia 61.759
lfoot -182.444 186.502
ltoes -21.7052
1975
root 2.51434 14.5114 2.39182 6.83979 -2.07985 1.9662
lowerback -6.19226 -5.02722 3.40855
upperback -9.24996 -6.78281 0.709684
thorax -6.53868 -3.59832 -1.1497
lowerneck -5.62141 11.9983 16.275
upperneck 36.5864 22.3866 -18.1706
head 19.5688 9.7974 -7.07653
rclavicle 3.81667e-014 7.95139e-015
rhumerus 4.30203 17.8497 -49.3514
rradius 124.85
rwrist -16.3744
rhand -30.9083 4.6325
rfingers 7.12502
rthumb -4.19463 -25.3059
lclavicle 3.81667e-014 7.95139e-015
lhumerus -8.88398 -14.6633 78.9044
lradius 139.862
lwrist 0.0891711
lhand -28.8909 0.904381
lfingers 7.12502
lthumb -2.24639 30.8723
rfemur -43.5891 3.21919 19.635
rtibia 58.0355
rfoot -17.2546 -12.7002
rtoes 3.72489
lfemur -7.04656 3.86826 -11.5561
ltibia 66.7831
lfoot -182 182.899
ltoes -22.801
1976
root 2.47098 14.5612 2.44701 6.49018 -2.08731 1.77591
lowerback -5.96977 -4.89967 3.99995
upperback -9.07755 -6.62495 0.519751
thorax -6.56867 -3.56216 -1.65584
lowerneck -5.55684 11.9858 16.1307
upperneck 36.6574 22.4186 -18.159
head 19.5779 9.79355 -7.04988
rclavicle 2.127e-014 4.77083e-015
rhumerus 4.54338 18.0069 -49.4859
rradius 124.593
rwrist -16.245
rhand -30.9015 4.70067
rfingers 7.12502
rthumb -4.188 -25.2379
lclavicle 2.127e-014 4.77083e-015
lhumerus -9.02115 -14.2993 78.6939
lradius 139.885
lwrist 0.191996
lhand -28.9393 1.05607
lfingers 7.12502
lthumb -2.29307 31.0235
rfemur -42.412 3.10387 20.1025
rtibia 57.1272
rfoot -17.2056 -12.5277
rtoes 3.91741
lfemur -10.362 4.71222 -11.0628
ltibia 71.8502
lfoot -181.512 179.879
ltoes -23.4519
1977
root 2.42978 14.6186 2.49776 6.13759 -2.09937 1.70656
lowerback -5.72423 -4.76157 4.46116
upperback -8.89771 -6.44913 0.307058
thorax -6.58551 -3.50879 -2.11595
lowerneck -5.49114 11.9545 15.9503
upperneck 36.7218 22.4225 -18.1437
head 19.5648 9.77401 -7.02144
rclavicle -3.20043e-014 -9.54166e-015
rhumerus 4.79068 18.1461 -49.6184
rradius 124.392
rwrist -16.1802
rhand -30.9058 4.74563
rfingers 7.12502
rthumb -4.19214 -25.1929
lclavicle -3.20043e-014 -9.54166e-015
lhumerus -9.09354 -13.9831 78.4943
lradius 139.894
lwrist 0.323282
lhand -28.9985 1.06831
lfingers 7.12502
lthumb -2.35028 31.0351
rfemur -41.2332 2.9667 20.418
rtibia 56.1888
rfoot -17.1318 -12.3535
rtoes 4.12064
lfemur -13.8154 5.56911 -10.8294
ltibia 76.864
lfoot -180.872 177.485
ltoes -23.8325
